<svg width="123" height="65" viewBox="0 0 123 65" fill="none" xmlns="http://www.w3.org/2000/svg">
<g clip-path="url(#clip0_2363_38)">
<path d="M27.3629 64.1755V58.4715L27.2513 58.5205C25.9674 59.143 24.5706 59.498 23.1456 59.564C21.6646 59.6802 20.1927 59.2458 19.0115 58.3438C18.1679 57.6918 17.5407 56.7999 17.212 55.7848C16.8494 54.6789 16.8075 53.4926 17.0913 52.3638C17.3547 51.2092 18.0006 50.1779 18.9238 49.4376C19.7425 48.752 20.7429 48.3201 21.8029 48.1947C23.6762 47.9866 25.569 48.3419 27.2399 49.2153L27.3629 49.2791V43.5432L27.1033 43.4736C25.4303 42.9356 23.6739 42.7053 21.919 42.794C20.3207 42.835 18.7467 43.1956 17.2895 43.8545C15.8183 44.529 14.5213 45.5324 13.4981 46.7875C11.9432 48.7577 11.0802 51.1862 11.0427 53.697C11.0052 56.2079 11.7954 58.6611 13.2908 60.6769C14.8041 62.6153 16.9286 63.9831 19.3178 64.5576C21.8359 65.1711 24.4747 65.0776 26.945 64.2907L27.3629 64.1755" fill="white"/>
<path d="M83.7379 64.1755V58.4715L83.6263 58.5205C82.3424 59.143 80.9456 59.498 79.5206 59.564C78.0396 59.6802 76.5677 59.2458 75.3865 58.3438C74.5429 57.6918 73.9157 56.7999 73.587 55.7848C73.2244 54.6789 73.1825 53.4926 73.4663 52.3638C73.7297 51.2092 74.3756 50.1779 75.2988 49.4376C76.1175 48.752 77.1179 48.3201 78.1779 48.1947C80.0512 47.9866 81.944 48.3419 83.6149 49.2153L83.7379 49.2791V43.5432L83.4783 43.4736C81.8053 42.9356 80.0489 42.7053 78.294 42.794C76.6957 42.835 75.1217 43.1956 73.6645 43.8545C72.1933 44.529 70.8963 45.5324 69.8731 46.7875C68.3182 48.7577 67.4552 51.1862 67.4177 53.697C67.3802 56.2079 68.1704 58.6611 69.6658 60.6769C71.1791 62.6153 73.3036 63.9831 75.6928 64.5576C78.2109 65.1711 80.8497 65.0776 83.32 64.2907L83.7379 64.1755" fill="white"/>
<path fill-rule="evenodd" clip-rule="evenodd" d="M47.4803 59.4408L47.4587 64.3534L47.8174 64.415C48.9438 64.626 50.0804 64.7719 51.2227 64.854C52.2229 64.9468 53.2286 64.9663 54.2316 64.9122C55.1906 64.8438 56.1393 64.6636 57.0561 64.3785C58.1334 64.0736 59.1328 63.5404 59.9864 62.8151C60.7549 62.158 61.3423 61.3147 61.6925 60.3656C62.3034 58.7766 62.2911 57.0151 61.6583 55.4347C61.3255 54.6146 60.8009 53.8865 60.1288 53.3114C59.479 52.7252 58.7151 52.2798 57.8852 52.0034L54.1838 50.6282C53.7416 50.44 53.3827 50.0976 53.1736 49.6646C53.0931 49.4867 53.055 49.2927 53.0621 49.0976C53.0692 48.9025 53.1214 48.7117 53.2146 48.5402C53.2809 48.4185 53.3641 48.3067 53.4617 48.2083C53.6202 48.0463 53.805 47.9125 54.0084 47.8126C54.4218 47.6074 54.8683 47.4785 55.3272 47.4283C56.1104 47.3152 56.9064 47.3237 57.687 47.4534C58.6095 47.5538 59.524 47.7169 60.4226 47.9438L60.614 47.986V43.4542L60.2609 43.3778C59.3436 43.158 58.4142 42.9924 57.4775 42.8818C56.2634 42.7194 55.0336 42.7141 53.8182 42.8658C52.2785 43.007 50.8139 43.5969 49.6055 44.5626C48.7863 45.2065 48.163 46.0668 47.806 47.0463C47.2688 48.5386 47.2676 50.1717 47.8026 51.6647C48.0782 52.406 48.5201 53.0754 49.0964 53.6193C49.5941 54.1005 50.1578 54.5088 50.7705 54.8338C51.5769 55.2671 52.431 55.6035 53.316 55.835C53.6087 55.9228 53.8991 56.0152 54.1883 56.1121L54.6268 56.2729L54.7521 56.3242C55.1849 56.4793 55.5789 56.7233 55.9115 57.0404C56.1415 57.257 56.3192 57.5227 56.4297 57.8192C56.498 58.0895 56.4992 58.3723 56.4331 58.6437C56.2945 59.0807 55.9903 59.4459 55.5858 59.6609C55.1451 59.8903 54.6674 60.0397 54.1747 60.1022C53.4518 60.2171 52.7188 60.2542 51.988 60.2128C51.0298 60.1409 50.0765 60.0137 49.1328 59.8319C48.6397 59.7293 48.1488 59.6153 47.6625 59.4864L47.4803 59.4408ZM34.7885 64.5519H40.1755V43.1577H34.7885V64.5519ZM97.1529 49.4753C97.7286 49.0057 98.3916 48.6551 99.1035 48.4436C99.8153 48.2321 100.562 48.164 101.3 48.2432C102.039 48.3224 102.754 48.5473 103.405 48.905C104.056 49.2626 104.63 49.7459 105.093 50.3269C105.556 50.9079 105.9 51.5751 106.104 52.2899C106.309 53.0048 106.369 53.753 106.283 54.4915C106.197 55.2299 105.965 55.944 105.602 56.5923C105.238 57.2406 104.75 57.8103 104.165 58.2685C102.998 59.1715 101.523 59.579 100.059 59.4029C98.5947 59.2269 97.2582 58.4815 96.3379 57.3276C95.4176 56.1737 94.9873 54.7037 95.1397 53.2349C95.2922 51.7661 96.0153 50.415 97.1529 49.4753ZM89.3322 53.8645C89.3578 55.5343 89.7543 57.1776 90.4928 58.675C91.2313 60.1724 92.2934 61.4865 93.602 62.522C94.9106 63.5575 96.4329 64.2885 98.0586 64.6618C99.6843 65.0352 101.373 65.0417 103.001 64.6807C105.188 64.2684 107.199 63.1994 108.765 61.6158C110.331 60.0322 111.379 58.0089 111.769 55.8148C112.159 53.6207 111.873 51.3596 110.949 49.3321C110.026 47.3045 108.507 45.6064 106.597 44.4634C104.9 43.4118 102.955 42.8283 100.96 42.7722C98.965 42.7161 96.9908 43.1894 95.2375 44.144C93.4842 45.0987 92.0143 46.5007 90.977 48.2079C89.9397 49.9151 89.3718 51.8666 89.331 53.8645" fill="white"/>
<path d="M0 25.9647C0.0383505 26.4664 0.217143 26.9472 0.515877 27.3519C0.814612 27.7566 1.22119 28.0687 1.68901 28.2527C2.15682 28.4366 2.66693 28.4848 3.16084 28.3917C3.65475 28.2986 4.11248 28.0681 4.48153 27.7265C4.97581 27.2669 5.27875 26.6375 5.32886 25.9647V20.0348C5.31445 19.3368 5.0274 18.6723 4.52929 18.1837C4.03118 17.6952 3.36169 17.4216 2.66443 17.4216C1.96717 17.4216 1.29768 17.6952 0.79957 18.1837C0.301462 18.6723 0.0144133 19.3368 0 20.0348L0 25.9647Z" fill="white"/>
<path d="M14.7486 25.9647C14.7997 26.6376 15.1025 27.2664 15.5966 27.7254C16.0907 28.1844 16.7396 28.4397 17.4136 28.4404C18.0876 28.4402 18.7367 28.185 19.2307 27.7259C19.7247 27.2668 20.0272 26.6377 20.0775 25.9647V12.6716C20.0527 11.9806 19.7612 11.3261 19.2642 10.846C18.7673 10.3659 18.1036 10.0976 17.413 10.0976C16.7224 10.0976 16.0588 10.3659 15.5618 10.846C15.0649 11.3261 14.7733 11.9806 14.7486 12.6716V25.9658" fill="white"/>
<path d="M29.4198 31.3186C29.468 31.993 29.7697 32.6241 30.2639 33.0848C30.7582 33.5455 31.4084 33.8016 32.0836 33.8016C32.7589 33.8016 33.4091 33.5455 33.9033 33.0848C34.3976 32.6241 34.6992 31.993 34.7475 31.3186V2.56468C34.7129 1.88064 34.4171 1.23606 33.9213 0.764156C33.4256 0.292257 32.7677 0.0291138 32.0836 0.0291138C31.3996 0.0291138 30.7417 0.292257 30.2459 0.764156C29.7501 1.23606 29.4544 1.88064 29.4198 2.56468V31.3186Z" fill="white"/>
<path d="M44.2173 25.9647C44.2684 26.6376 44.5713 27.2664 45.0654 27.7254C45.5595 28.1844 46.2084 28.4397 46.8823 28.4404C47.5564 28.4402 48.2054 28.185 48.6995 27.7259C49.1935 27.2668 49.4959 26.6377 49.5462 25.9647V12.6716C49.5215 11.9806 49.23 11.3261 48.733 10.846C48.236 10.3659 47.5724 10.0976 46.8818 10.0976C46.1912 10.0976 45.5276 10.3659 45.0306 10.846C44.5336 11.3261 44.2421 11.9806 44.2173 12.6716V25.9658" fill="white"/>
<path d="M58.9375 25.9647C58.9759 26.4664 59.1546 26.9472 59.4534 27.3519C59.7521 27.7566 60.1587 28.0687 60.6265 28.2527C61.0943 28.4366 61.6044 28.4848 62.0983 28.3917C62.5923 28.2986 63.05 28.0681 63.419 27.7265C63.9133 27.2669 64.2163 26.6375 64.2664 25.9647V20.0348C64.2519 19.3368 63.9649 18.6723 63.4668 18.1837C62.9687 17.6952 62.2992 17.4216 61.6019 17.4216C60.9047 17.4216 60.2352 17.6952 59.7371 18.1837C59.239 18.6723 58.9519 19.3368 58.9375 20.0348V25.9647Z" fill="white"/>
<path d="M73.6861 25.9647C73.7372 26.6376 74.04 27.2664 74.5341 27.7254C75.0282 28.1844 75.6771 28.4397 76.3511 28.4404C77.0251 28.4402 77.6742 28.185 78.1682 27.7259C78.6622 27.2668 78.9647 26.6377 79.015 25.9647V12.6716C78.9902 11.9806 78.6987 11.3261 78.2017 10.846C77.7048 10.3659 77.0411 10.0976 76.3505 10.0976C75.6599 10.0976 74.9963 10.3659 74.4993 10.846C74.0024 11.3261 73.7108 11.9806 73.6861 12.6716V25.9658" fill="white"/>
<path d="M88.3573 31.3186C88.4055 31.993 88.7072 32.6241 89.2014 33.0848C89.6957 33.5455 90.3459 33.8016 91.0211 33.8016C91.6964 33.8016 92.3466 33.5455 92.8408 33.0848C93.3351 32.6241 93.6367 31.993 93.685 31.3186V2.56468C93.6504 1.88064 93.3546 1.23606 92.8588 0.764156C92.3631 0.292257 91.7052 0.0291138 91.0211 0.0291138C90.3371 0.0291138 89.6792 0.292257 89.1834 0.764156C88.6876 1.23606 88.3919 1.88064 88.3573 2.56468V31.3186Z" fill="white"/>
<path d="M103.155 25.9647C103.206 26.6376 103.509 27.2664 104.003 27.7254C104.497 28.1844 105.146 28.4397 105.82 28.4404C106.494 28.4402 107.143 28.185 107.637 27.7259C108.131 27.2668 108.433 26.6377 108.484 25.9647V12.6716C108.459 11.9806 108.167 11.3261 107.67 10.846C107.174 10.3659 106.51 10.0976 105.819 10.0976C105.129 10.0976 104.465 10.3659 103.968 10.846C103.471 11.3261 103.18 11.9806 103.155 12.6716V25.9658" fill="white"/>
<path d="M117.733 25.9647C117.771 26.4664 117.95 26.9472 118.249 27.3519C118.547 27.7566 118.954 28.0687 119.422 28.2527C119.889 28.4366 120.4 28.4848 120.893 28.3917C121.387 28.2986 121.845 28.0681 122.214 27.7265C122.708 27.2669 123.011 26.6375 123.061 25.9647V20.0348C123.047 19.3368 122.76 18.6723 122.262 18.1837C121.764 17.6952 121.094 17.4216 120.397 17.4216C119.7 17.4216 119.03 17.6952 118.532 18.1837C118.034 18.6723 117.747 19.3368 117.733 20.0348V25.9647Z" fill="white"/>
</g>
<defs>
<clipPath id="clip0_2363_38">
<rect width="123" height="65" fill="white"/>
</clipPath>
</defs>
</svg>
