<svg width="182" height="65" viewBox="0 0 182 65" fill="none" xmlns="http://www.w3.org/2000/svg">
<path d="M2.94737 3.26316H171.197V62.0263H2.94737V3.26316ZM0 65H174.197V0.315774H0V65Z" fill="white"/>
<path d="M46.6185 17.2237V48.0264L49.0395 48.3422V50.1448H37.0922V48.3422L39.6711 48.0264V34H24.3685V48.0264L26.7238 48.3422V50.1448H14.9738V48.3422L17.329 48.0264V17.2237L14.9738 16.9079V15.1448H26.7238V16.9079L24.3685 17.2237V30.3816H39.658V17.2237L37.079 16.9079V15.1448H49.0264V16.9079L46.6185 17.2237Z" fill="white"/>
<path d="M62.921 48.25L65.171 48.5658V50.1448H54.1842V48.5658L56.4342 48.25V27.1448L54.1842 26.829V25.25H62.921V48.25Z" fill="white"/>
<path d="M69.9473 48.6184L72.1446 48.3157V17.0131L69.9473 16.6973V15.1578H78.6841V48.3157L80.9341 48.6184V50.171H69.9473V48.6184Z" fill="white"/>
<path d="M94.3027 25.2369H100.197V27.5658H94.3027V42.3816C94.3027 46.2105 95.0922 47.4342 98.579 47.4342C99.8685 47.4342 101 47.4342 102.066 47.1579V48.8684C98.8948 49.9869 96.2238 50.4474 93.9738 50.4474C88.9211 50.4474 87.7632 48.1711 87.7632 43.8158V27.5658H83.158V25.2369H87.9343V20.0395L94.3159 18.1316V25.2369" fill="white"/>
<path d="M129.75 37.9342C129.75 45.6974 124.5 50.8948 116.237 50.8948C108.25 50.8948 103.145 47.5 103.145 37.9342C103.145 29.9211 108.395 24.5527 116.658 24.5527C124.829 24.5395 129.75 29.3948 129.75 37.9342ZM122.579 37.7764C122.579 29.9079 120.224 26.4737 116.421 26.4737C112.711 26.4737 110.355 29.7632 110.355 37.7764C110.355 45.6974 112.711 48.9869 116.421 48.9869C120.382 48.9869 122.579 45.8421 122.579 37.7764Z" fill="white"/>
<path d="M159.592 48.5658V50.1448H148.605V48.5658L150.803 48.25V34.0658C150.803 30.1316 149.342 28.3685 146.355 28.3685C144.974 28.3685 142.763 29.329 141.158 30.4474V48.2369L143.408 48.5527V50.1316H132.369V48.5527L134.619 48.2369V27.3027L132.369 26.9869V25.2237H141.158V28.6843C143.882 26.5132 146.526 24.7501 150.211 24.7501C155.132 24.7501 157.342 27.6185 157.342 33.2632V48.2632L159.592 48.5658Z" fill="white"/>
<path d="M63.25 18.6579C63.25 20.5921 61.671 22.171 59.7105 22.171C57.75 22.171 56.171 20.6184 56.171 18.6579C56.171 16.7237 57.75 15.1447 59.7105 15.1447C61.671 15.1447 63.25 16.7237 63.25 18.6579Z" fill="white"/>
<path d="M178.592 2.22368H179.105C179.447 2.22368 179.579 2.11843 179.579 1.88159C179.579 1.64475 179.461 1.53947 179.105 1.53947H178.592V2.22368ZM180.039 1.85528C180.039 2.19739 179.895 2.39474 179.592 2.50001L180.132 3.28948H179.632L179.132 2.5658H178.592V3.28948H178.171V1.15791H179.105C179.763 1.15791 180.039 1.3816 180.039 1.85528ZM177.316 2.25002C177.316 3.21055 178.105 4.02634 179.092 4.02634C180.053 4.02634 180.868 3.23686 180.868 2.25002C180.868 1.28949 180.079 0.473704 179.092 0.473704C178.105 0.473704 177.316 1.26318 177.316 2.25002ZM181.316 2.25002C181.316 3.48686 180.303 4.5 179.066 4.5C177.829 4.5 176.816 3.48686 176.816 2.25002C176.816 1.01318 177.829 6.77344e-06 179.066 6.77344e-06C180.329 6.77344e-06 181.316 0.986862 181.316 2.25002Z" fill="white"/>
</svg>
