<svg width="176" height="65" viewBox="0 0 176 65" fill="none" xmlns="http://www.w3.org/2000/svg">
<g clip-path="url(#clip0_2363_54)">
<path fill-rule="evenodd" clip-rule="evenodd" d="M170.657 10.6309C173.572 10.6309 176 8.2617 176 5.28506C176 2.36918 173.572 -0.06073 170.657 -0.06073C167.743 -0.06073 165.315 2.36918 165.315 5.28506C165.376 8.2617 167.743 10.6309 170.657 10.6309ZM166.165 5.34581C166.165 2.85516 168.229 0.789737 170.718 0.789737C173.207 0.789737 175.271 2.85516 175.271 5.34581C175.271 7.83647 173.207 9.90189 170.718 9.90189C168.168 9.84114 166.165 7.83647 166.165 5.34581ZM168.654 8.01871H169.686V5.7103H170.9L171.811 7.95796H172.964L171.932 5.52806C172.297 5.34581 172.904 5.16357 172.904 4.13086C172.904 2.49067 171.69 2.30843 170.597 2.30843H168.715V8.01871H168.654ZM169.686 3.34114H170.84C171.447 3.34114 171.811 3.58413 171.811 4.07011C171.811 4.55609 171.447 4.79908 170.961 4.79908H169.747V3.34114H169.686Z" fill="white"/>
<path d="M0 7.71499V7.65424V1.33649H6.3139V7.65424V7.71499V47.3832V47.5047V53.701H0V47.444V47.3832V7.71499Z" fill="white"/>
<path d="M64.0497 34.6262C64.2318 44.1636 70.1207 51.757 77.2846 51.6355C84.4484 51.514 90.0945 43.6776 89.9124 34.201C89.7302 24.6636 83.8413 17.0701 76.6775 17.1916C69.5136 17.3131 63.8675 25.1496 64.0497 34.6262ZM116.139 23.1449C116.321 23.5094 115.897 22.5982 115.897 22.5982L116.139 23.1449ZM120.45 62.5701C120.753 62.0841 121.118 61.3552 121.603 60.3832L120.45 62.5701ZM120.814 19.8645C120.875 20.0468 120.996 20.2898 121.057 20.5327L123.182 25.6963L120.814 19.8645ZM94.4657 45.986C98.3512 49.5094 101.872 51.3318 106.365 51.3318C110.979 51.3926 115.047 49.1449 115.047 44.8318C115.047 41.2477 111.829 39.1215 106.122 36.6916C101.265 34.6262 97.6833 33.1075 95.8013 30.1309C96.0441 31.4673 96.1656 32.8038 96.1656 34.201C96.1656 45.8645 87.6661 55.3412 77.2239 55.3412C66.7209 55.3412 58.2822 45.8645 58.2822 34.201C58.2822 27.1542 61.3784 20.8972 66.1138 17.0701H53.2432V47.3832V47.5047V53.7617H47.5364V47.7477C47.5364 47.6262 47.5364 47.5047 47.5364 47.444V17.0701H42.4974V13.243H47.5971C48.3256 5.52807 53.0611 1.15424 59.6785 1.15424C63.989 1.15424 66.296 1.57947 67.6923 2.24769V7.47199C67.6923 7.83648 67.6923 8.07947 67.6923 8.07947C67.6316 8.07947 67.5102 8.07947 67.5102 8.07947C65.446 6.19629 63.4426 4.73835 58.6464 4.73835C54.8824 4.73835 52.3932 7.83648 53.2432 13.1823H74.5526C75.4025 13.0608 76.3132 13 77.2239 13C84.8127 13 91.3694 17.9813 94.3442 25.2103C94.3442 24.7851 94.2835 24.4206 94.2835 23.9346C94.2835 16.4019 101.569 13.243 109.097 13.243C109.4 13.243 109.643 13.243 109.947 13.243C112.618 13.1823 116.382 14.0935 118.689 14.701L120.814 19.8645L123.182 25.6963L129.617 41.3084L130.346 43.7991L131.196 41.3084L139.27 21.2617C140.788 15.7337 146.677 13.3645 153.234 13.3645C156.512 13.3645 158.88 13.729 161.733 14.7617V20.8365C158.212 18.2851 155.662 16.7664 151.655 16.7664C148.134 16.7664 143.884 18.3458 143.884 23.5094C143.823 27.3972 146.191 28.1262 153.051 31.5281C158.697 33.958 163.919 36.6916 163.979 42.9486C163.979 53.3972 153.659 55.2197 148.62 55.2197C144.127 55.2197 140.059 54.1262 137.752 52.243V45.3785L138.117 45.6823C142.184 49.5094 145.766 51.4533 150.441 51.4533C155.055 51.514 159.122 49.2664 159.122 44.9533C159.122 41.3692 155.905 39.243 150.198 36.8131C144.734 34.444 141.152 32.8645 139.695 28.9767C137.449 34.3832 127.128 59.5935 124.7 65H119.114L120.45 62.5094L121.603 60.3225L121.664 60.2617C123.06 57.5281 125.125 53.215 126.885 49.0234L116.139 23.0841C116.079 22.9019 115.897 22.5374 115.532 21.6869C114.682 19.8038 113.954 18.1028 111.647 17.1916C110.433 16.7664 109.097 16.5841 107.518 16.5841C103.997 16.5841 99.4439 18.1636 99.4439 23.3271C99.3832 27.215 101.994 27.944 108.854 31.3458C114.5 33.7757 119.721 36.5094 119.782 42.7664C119.782 53.215 109.461 55.0374 104.422 55.0374C100.415 55.0374 96.7727 54.1869 94.3442 52.6075V45.986H94.4657Z" fill="white"/>
<path d="M18.0311 13.6075L18.0918 18.1636V18.4673H18.1525C18.2132 18.2851 18.3346 18.1028 18.3953 17.9814C20.7023 15.4907 23.6164 13.0608 30.5374 13.0608C37.1549 13.0608 41.4653 18.7103 41.6475 22.2337V47.3225V47.444V53.6402H35.9407V46.1683V24.7851C35.9407 20.3505 32.0552 17.1916 27.3198 17.1916C23.3736 17.1916 18.2739 20.715 18.1525 24.3599V47.3832V47.5655V53.7617H12.4457V47.3832V18.8926V13.6075H13.4778H16.574H18.0311Z" fill="white"/>
</g>
<defs>
<clipPath id="clip0_2363_54">
<rect width="176" height="65" fill="white"/>
</clipPath>
</defs>
</svg>
