<svg width="445" height="65" viewBox="0 0 445 65" fill="none" xmlns="http://www.w3.org/2000/svg">
<g clip-path="url(#clip0_2363_19)">
<path fill-rule="evenodd" clip-rule="evenodd" d="M107.074 20C102.577 20 98.2227 21.5714 94.7963 24.4286V20.4286H83.5892V64H95.2246V36.1429C97.723 32.8571 101.649 30.8571 105.789 30.7143C107.36 30.6429 108.93 30.8571 110.429 31.4286V20.3571C109.358 20.1429 108.216 20 107.074 20Z" fill="white"/>
<path fill-rule="evenodd" clip-rule="evenodd" d="M5.63924 50.7857C8.99422 53.5714 13.2058 55.1429 17.5602 55.0714C20.701 55.0714 23.128 53.5714 23.128 51.3571C23.128 44.7857 2.0701 47.1429 2.0701 33.0714C2.0701 24.7143 10.1363 19.5 18.7023 19.5C23.9132 19.5 29.0528 21.0714 33.4071 23.9286L27.982 32.3571C25.555 30.5 22.6997 29.5 19.6303 29.4286C16.418 29.4286 13.7055 30.7143 13.7055 32.9286C13.7055 38.5714 34.7634 36.3571 34.7634 51.4286C34.7634 59.8571 26.5544 65 17.4888 65C11.1357 64.9286 5.06817 62.8571 0 59.1429L5.63924 50.7857Z" fill="white"/>
<path fill-rule="evenodd" clip-rule="evenodd" d="M78.6637 41.8571C78.6637 29.7143 70.1692 19.5714 58.1769 19.5714C45.2566 19.5714 37.0476 30.1428 37.0476 42.2857C36.5479 54.3571 45.8277 64.5 57.82 65C58.4624 65 59.1048 65 59.7473 65C66.5287 65.0714 73.0245 62.2143 77.593 57.2143L70.9544 50.5714C68.1705 53.6428 64.173 55.5 60.0328 55.5714C54.0367 55.7857 48.8971 51.2143 48.3261 45.2143H78.3782C78.5923 44.1428 78.6637 43 78.6637 41.8571ZM48.8257 36.6428C49.6823 32.2143 53.6084 29 58.1055 29C62.4598 29 66.1717 32.2857 66.6714 36.6428H48.8257Z" fill="white"/>
<path fill-rule="evenodd" clip-rule="evenodd" d="M138.197 47.0714L150.118 20.5H162.253L142.266 64.0714H134.2L114.212 20.5H126.347L138.197 47.0714Z" fill="white"/>
<path fill-rule="evenodd" clip-rule="evenodd" d="M171.961 0C176.101 0.0714286 179.385 3.5 179.313 7.64286C179.242 11.7857 175.816 15.0714 171.675 15C167.607 14.9286 164.323 11.5714 164.323 7.5C164.394 3.35714 167.749 0 171.818 0C171.89 0 171.961 0 171.961 0Z" fill="white"/>
<path d="M177.814 20.5H166.179V64.0714H177.814V20.5Z" fill="white"/>
<path fill-rule="evenodd" clip-rule="evenodd" d="M225.926 55.1429C221.429 61.5714 214.005 65.2143 206.225 64.9286C193.661 65.2143 183.311 55.3572 182.954 42.7857C182.668 30.2143 192.519 19.8571 205.083 19.5C205.511 19.5 205.939 19.5 206.296 19.5C213.363 19.4286 220.144 22.6429 224.57 28.2143L216.29 35.5714C213.934 32.3571 210.222 30.4286 206.296 30.3571C199.872 30.3571 194.589 35.5 194.589 42C194.589 42.1429 194.589 42.2143 194.589 42.3571C194.375 48.7143 199.372 54 205.725 54.2143C206.011 54.2143 206.296 54.2143 206.582 54.2143C210.793 54.1429 214.648 52 216.932 48.4286L225.926 55.1429Z" fill="white"/>
<path fill-rule="evenodd" clip-rule="evenodd" d="M268.185 57.1428C263.688 62.2143 257.192 65.0714 250.339 64.9286C238.347 65.5 228.139 56.2143 227.64 44.2143C227.64 43.5714 227.64 42.9286 227.64 42.2857C227.64 30.1428 235.849 19.5714 248.769 19.5714C260.761 19.5714 269.256 29.7143 269.256 41.8571C269.256 43 269.184 44.0714 268.97 45.2143H238.918C239.489 51.2143 244.629 55.7143 250.625 55.5714C254.765 55.4286 258.762 53.6428 261.546 50.5714L268.185 57.1428ZM257.335 36.6428C256.835 32.2857 253.123 29 248.769 29C244.2 29 240.346 32.2143 239.489 36.6428H257.335Z" fill="white"/>
<path fill-rule="evenodd" clip-rule="evenodd" d="M273.896 64.0714V20.5H285.103V24C288.529 21.1428 292.883 19.5714 297.38 19.5714C303.162 19.5714 308.73 22.1428 312.442 26.5714C315.797 30.9286 317.368 36.3571 316.939 41.8571V64.0714H305.304V40.9286C305.661 37.9286 304.661 35 302.734 32.7143C300.95 31.0714 298.594 30.2143 296.167 30.2857C292.027 30.4286 288.172 32.3571 285.602 35.7143V64.0714H273.896Z" fill="white"/>
<path fill-rule="evenodd" clip-rule="evenodd" d="M346.777 19.5714C332.715 19.5714 321.294 30.9286 321.222 45C321.222 52 324.078 58.7857 329.217 63.5714C331.002 65.2857 333.786 65.4286 335.784 63.9286C342.209 59.1428 351.06 59.1428 357.485 63.9286C359.483 65.4286 362.267 65.2857 364.052 63.5714C374.26 53.8571 374.688 37.7143 364.98 27.5C360.269 22.5 353.701 19.6428 346.777 19.5714ZM346.635 57.7857C339.782 58 334.143 52.5714 333.928 45.7857C333.928 45.5714 333.928 45.3571 333.928 45.1428C333.928 38.1428 339.639 32.4286 346.635 32.4286C353.63 32.4286 359.341 38.1428 359.341 45.1428C359.555 52 354.13 57.6428 347.348 57.8571C347.063 57.7857 346.849 57.7857 346.635 57.7857Z" fill="#62D84E"/>
<path fill-rule="evenodd" clip-rule="evenodd" d="M395.032 64.0714H386.395L369.12 20.5H380.684L390.178 45.3571L399.458 20.5H409.166L418.374 45.3571L427.94 20.5H439.575L422.3 64.0714H413.663L404.312 39.2143L395.032 64.0714Z" fill="white"/>
<path d="M439.718 59.1429H438.718V61H437.862V55.9286H439.932C440.86 55.9286 441.574 56.6429 441.574 57.5714C441.574 58.2143 441.145 58.7857 440.574 59.0714L441.716 61.0714H440.788L439.718 59.1429ZM438.718 58.4286H439.932C440.431 58.4286 440.788 58.0714 440.788 57.5714C440.788 57.0714 440.431 56.7143 439.932 56.7143H438.718V58.4286Z" fill="white"/>
<path d="M439.575 53.8572C442.145 53.8572 444.286 55.9286 444.286 58.5715C444.286 61.1429 442.216 63.2857 439.575 63.2857C437.005 63.2857 434.864 61.2143 434.864 58.5715C434.935 56 437.005 53.8572 439.575 53.8572ZM439.575 53.1429C436.577 53.1429 434.15 55.5715 434.15 58.5715C434.15 61.5715 436.577 64 439.575 64C442.573 64 445 61.5715 445 58.5715C445 55.5715 442.573 53.1429 439.575 53.1429Z" fill="white"/>
</g>
<defs>
<clipPath id="clip0_2363_19">
<rect width="445" height="65" fill="white"/>
</clipPath>
</defs>
</svg>
