<svg width="313" height="65" viewBox="0 0 313 65" fill="none" xmlns="http://www.w3.org/2000/svg">
<g clip-path="url(#clip0_2363_52)">
<path d="M48.7217 47.125C48.7217 49.5625 48.1804 51.7291 47.0976 53.625C46.0148 55.7916 44.3908 57.4166 42.4962 59.0416C40.6014 60.6666 38.1653 62.0209 35.4585 62.8334C32.7519 63.6459 29.7743 64.1875 26.5262 64.1875C23.5488 64.1875 20.842 63.9166 18.6766 63.6459C16.2406 63.375 14.0752 62.8334 11.9097 62.2916C9.74434 61.75 7.8496 60.6666 5.95488 59.8541C4.06014 58.7709 2.16541 57.4166 0 56.0625L9.47365 47.6666C12.1804 49.8334 14.8872 51.1875 17.5939 52C20.3007 52.8125 23.0075 53.3541 25.9849 53.3541C27.3383 53.3541 28.421 53.0834 29.5037 52.8125C30.5863 52.5416 31.6691 52 32.4811 51.4584C33.2932 50.9166 33.8344 50.1041 34.376 49.5625C34.9172 48.75 35.188 47.9375 35.188 47.125C35.188 46.0416 34.9172 45.2291 34.6464 44.4166C34.376 43.6041 33.5639 42.7916 32.4811 42.25C31.3983 41.4375 30.045 40.8959 28.1503 40.0834C26.2556 39.2709 24.0902 38.4584 21.1127 37.6459C18.6767 36.8334 16.2406 36.0209 13.8045 34.9375C11.3684 33.8541 9.47365 32.5 7.8496 31.1459C6.22554 29.7916 4.60148 27.8958 3.78946 26C2.43608 23.5625 1.89473 21.125 1.89473 18.4167C1.89473 15.7083 2.43608 13.2708 3.5188 11.1042C4.60148 8.9375 6.22554 7.04166 8.39097 5.41666C10.2857 4.0625 12.7218 2.70833 15.4285 1.89583C18.1353 1.08333 21.1127 0.541666 24.0902 0.541666C29.233 0.541666 33.8344 1.08333 37.3533 2.4375C40.8722 3.79166 44.1203 5.41666 46.8269 7.85416L37.6241 16.25C36 14.8958 34.1052 13.5417 31.9399 12.7292C29.7743 11.9167 27.3383 11.6458 24.6315 11.6458C23.2781 11.6458 22.1954 11.9167 21.1127 12.1875C19.7594 12.4583 18.9473 13 18.1353 13.5417C17.3233 14.0833 16.7819 14.8958 16.2406 15.7083C15.6992 16.5208 15.4285 17.3333 15.4285 18.1458C15.4285 19.2292 15.6992 20.0417 16.2406 20.8542C16.5113 21.6667 17.3233 22.2083 18.406 23.0208C19.4887 23.8333 20.842 24.375 22.7368 25.1875C24.6315 26 26.7969 26.8125 29.5037 27.625C33.0224 28.7083 35.7292 29.7916 38.1653 31.1459C40.6014 32.5 42.4962 33.8541 44.1203 35.4791C45.7444 37.1041 46.8269 38.7291 47.6389 40.625C48.4509 42.5209 48.7217 44.6875 48.7217 47.125ZM124.782 63.375H111.519V36.2916H86.887V63.375H73.6238V1.89583H86.887V26.2708H111.519V1.89583H124.782V63.375ZM198.135 63.375H149.684V1.89583H198.135V11.6458H162.676V26.2708H195.428V35.75H162.676V52.5416H198.135V63.375ZM237.383 63.375H224.12V1.89583H237.383V63.375ZM312.359 1.89583V65L275.278 32.7709V62.8334H262.285V0L299.367 32.2291V1.89583H312.359Z" fill="white"/>
</g>
<defs>
<clipPath id="clip0_2363_52">
<rect width="313" height="65" fill="white"/>
</clipPath>
</defs>
</svg>
